<svg version="1.2" baseProfile="tiny" xmlns="http://www.w3.org/2000/svg" viewBox="0 0 500 500" overflow="visible" xml:space="preserve"><path fill="#F5A700" d="M154.4 351.2c8.9 3.7 17.2 2 24.7-4 6.1-4.9 12.9-8.1 20.7-8.7 4.5-.4 9.1-.4 13.7 0 6.6.6 13.1-.1 19.3-2.1 6.3-2 12.6-4.2 19.3-4.8 2.7-.3 5.5-.5 8.2-.4 8.1.3 16.3.9 24.1-2.3 3.9-1.6 7.3-4 10.1-7 8.5-8.8 19.2-13 30.9-15.3 5.2-1 10.6-1.5 15.9-1.5 2.8 0 5.5-.2 8.2-.8 3.6-.7 6.2-3 8.6-5.6 2.5-2.8 4.2-6.3 6.9-9 2.6-2.6 5.6-3.9 9.2-3.5-.1-4.1-.4-8.2-1.1-12.2-.4-2.4-1-4.8-1.8-7.1-1.4-4.2-1.6-8.5-1-12.8.8-6.3 1.6-12.6 1.3-19-.2-4.2-1.1-8.2-2.2-12.2-1.5-5.1-2.4-10.4-1.5-15.8 1-6.3 2.1-12.7 2.4-19.1.6-11.2-.3-22.2-4.1-32.8-2-5.5-4-11.1-3.3-17.2.5-4.5.7-9.1.3-13.7-.3-3.7-1.3-7.2-3.5-10.3-2.2-3.2-4.3-6.5-6.6-9.7-2.2-3.1-3.5-6.5-4.7-10.1-4.2-12.9-12.4-21.7-26-24.8-3.7-.9-7.5-1.6-10.4-4.6-2.6-2.7-5.6-5.1-8.7-7.3-6.2-4.2-13-6-20.5-5.1-5.6.7-10.9 2.3-16 4.6-6.5 2.9-13.2 3.4-20.1 3-11.1-.8-20.8 2.5-28.9 10.2-5.1 4.8-10.7 8.8-18.3 8.4-1.5-.1-3 .1-4.5.2-7.7.4-14.3 3.2-19.9 8.5-3.2 3.1-6.3 6.3-9.1 9.8-4.6 5.7-10.5 9.1-17.3 11.4-5.4 1.8-10.7 4.2-14.5 8.8-6.7 8.1-9.2 17.4-7.7 27.8.9 6.3 1.1 12.6-.6 18.8-2.5 8.7-2.5 17.6-2.5 26.6 0 6.4.1 12.8-.9 19.2-1.3 8.2-3.4 16.2-5.1 24.3-1.4 6.8-1.9 13.7-.9 20.6.7 4.7 2.3 9.2 3.7 13.7 1.2 3.8 1.4 7.5 0 11.3-1.9 5.4-3.6 10.8-3.9 16.6-.4 6.4-.6 12.7 1.6 18.9 1.9 5.4 3.8 10.9 4.3 16.7 7.2.3 12.4 4.7 17.4 9.2 4.8 3.9 9.3 7.9 14.8 10.2z"/><path fill="#C92200" d="M382.5 293.1c-.5-.8-1-1.6-1.6-2.3-1.7-2.1-3.8-3.8-6.6-4.6-3.6-.3-6.6 1-9.2 3.5-2.7 2.7-4.4 6.1-6.9 9-2.3 2.7-5 4.9-8.6 5.6-2.7.5-5.4.8-8.2.8-5.3 0-10.7.4-15.9 1.5-11.7 2.3-22.4 6.5-30.9 15.3-2.9 3-6.2 5.4-10.1 7-7.8 3.2-16 2.6-24.1 2.3-2.8-.1-5.5.1-8.2.4-6.7.6-13 2.8-19.3 4.8s-12.7 2.6-19.3 2.1c-4.5-.4-9.1-.4-13.7 0-7.8.6-14.6 3.9-20.7 8.7-7.5 6-15.8 7.7-24.7 4-5.5-2.3-10.1-6.3-14.5-10.2-5.1-4.5-10.2-8.8-17.4-9.2-4.2.7-5.9 3.9-6.9 7.4-1.4 5.2-2.2 10.5-2.5 15.8-.1 2.2.2 4.3.8 6.4 1 3.6 3.3 6.5 5.6 9.3 2.8 3.3 4.9 6.9 5.1 11.3.2 2.5.2 5 .2 7.6-.1 6.2.7 12.3 2.7 18.2 3.2 9.4 8.7 16.8 18 20.9 3.8 1.7 7.8 2.7 11.9 3.6 3.5.8 6.7 2.1 9.2 4.6 7.4 7.5 16.6 12.4 25.7 17.3 11.3 6.1 23.7 7.9 36.3 9.1 6.7.6 13.6.5 20.2 2.3 5.1 1.4 10.2 3.2 15.5 4.1 13.5 2.3 25.7-.7 36.1-9.8 6.5-5.7 12.4-11.9 17.9-18.5 3.5-4.1 7.5-7.4 12.6-9.3 2.2-.8 4.3-1.9 6.4-2.9 3.8-1.7 7-4.2 9.6-7.4 6.9-8.7 11.8-18.5 14.4-29.4 1.6-6.5 4.2-12.5 8.9-17.5 6.2-6.5 10.1-14.2 12.8-22.7 3.8-12.3 5.9-24.8 5.4-37.8-.5-7.6-2-14.7-6-21.3z"/><path fill="#010100" d="M159.2 245.3c7.2 1.1 14.3.2 21.4-1.3 12.6-2.7 23.7-8.4 32.8-17.7 9.1-9.2 15.1-20.2 18.8-32.5 1.9-6.2 2.9-12.5 1.3-19-.3-1.3.5-1.6 1.4-2 7.5-3.4 15.1-3.2 22.8-.7 1.2.4 1.3.9 1 1.9-1 3.5-1.3 7.1-.8 10.7.9 7.7 3.6 14.9 6.9 21.8 12.5 26.1 36.6 40.2 65.2 39 9.5-.4 17.3-4.5 22.9-12.4 4-5.7 6.3-12.1 8.1-18.7 2.8-9.7 3.5-19.7 1.7-29.6-2.6-13.9-10.7-23.8-23.4-29.8-13.5-6.4-27.9-6.8-42.5-5.6-7.2.6-14 2.5-20.6 5.3-4.6 2-8.8 4.5-12 8.4-1.2 1.4-2.1 1.6-3.8 1.1-5.8-1.7-11.6-3-17.7-2-3.9.6-7.6 1.8-11.2 3.2-1.2.4-1.9.4-2.6-.8-1.8-2.6-4.2-4.8-6.9-6.6-4.8-3.3-10.3-5.2-15.8-6.6-8.7-2.3-17.5-2.6-26.4-2.4-8.8.3-17.4 1.7-25.6 5.3-11.3 4.9-19.3 12.9-23.5 24.7-1.9 5.3-2.2 10.7-2.3 16.2-.1 12.5 2.7 24.4 8.9 35.3 4.9 8.5 12.2 13.3 21.9 14.8z"/><path fill="#040300" d="M216 266.02c-2 0-3.2 1.1-3.2 2.7 0 1.7 1.76 2.28 3.76 2.28h59c2 0 3.34-.88 3.34-2.48-.01-1.55-1.34-2.52-3.34-2.52z"/><path fill="#FBFBFB" d="M149.2 198.8c2.1-2 3.7-4.4 5.1-6.9 4.3-7.1 9.2-13.7 15.4-19.4 1.2-1.1 2.3-2.3 3.2-3.7 1.6-2.5 1.2-4.6-1.1-6.4-2-1.5-4.2-1.9-6.8-1.9-.4 0-1 0-1.6.1-14.4 1.4-26.2 15.4-25.2 29.9.2 2.9.9 5.6 2.8 7.8 2.5 3.3 5.2 3.4 8.2.5zM278 197.2c2-2 3.6-4.3 5-6.8 4.3-7.2 9.4-13.9 15.6-19.7 1-.9 1.8-1.9 2.6-3 2.4-3.2 1.8-6-1.8-7.8-2.5-1.3-5.2-1.4-7.9-1-13.9 1.9-24.5 14-24.6 28.1 0 4 .9 7.3 2.9 9.6 2.6 3.2 5.3 3.3 8.2.6z"/></svg>
